# xmcd
#
# Track frame offsets: 
#        150
#        2930
#        17950
#        31237
#        53707
#        69760
#        99400
#        114010
#        127480
#        141485
#        189570
#        208785
#
# Disc length: 2880 seconds
#
# Revision: 3
# Processed by: cddbd v1.5.2PL0 Copyright (c) Steve Scherf et al.
# Submitted via: ExactAudioCopyFreeDBPlugin 1.0
#
DISCID=a80b3e0c
DTITLE=Al Green - Anthology [The Right Stuff box set]
DYEAR=1997
DGENRE=Soul
TTITLE0=Intro to "Let's Stay Together"
TTITLE1=Let's Stay Together
TTITLE2=So You're Leaving
TTITLE3=Judy (live)
TTITLE4=La-La for You
TTITLE5=How Can You Mend a Broken Heart (live)
TTITLE6=I'm Still in Love with You
TTITLE7=I'm Glad You're Mine
TTITLE8=Look What You Done for Me
TTITLE9=Love and Happiness (live)
TTITLE10=Simply Beautiful
TTITLE11=Interview:  "The Technique of Writing My Songs"
EXTD=
EXTT0=
EXTT1=
EXTT2=
EXTT3=
EXTT4=
EXTT5=
EXTT6=
EXTT7=
EXTT8=
EXTT9=
EXTT10=
EXTT11=
PLAYORDER=
